PathFileType	4	(X/Y/Z)	c:/Users/goper/Files/vsCode/490R/osim_files/C10/C10_Fast_01.trc
DataRate	CameraRate	NumFrames	NumMarkers	Units                	OrigDataRate	OrigDataStartFrame	OrigNumFrames
250.00	250.00	11	36	mm	250.0	1348	2156
                Frame#	Time	LPSIS			LASIS			LTH1			LTH2			LTH3			LTH4			LLFE			LMFE			LSH1			LSH2			LSH3			LSH4			LLMAL			LMMAL			LCAL			LMTP5			LTOE			LMTP1			RPSIS			RASIS			RTH1			RTH2			RTH3			RTH4			RLFE			RMFE			RSH1			RSH2			RSH3			RSH4			RLMAL			RMMAL			RCAL			RMTP1			RTOE			RMTP5		
		X1	Y1	Z1	X2	Y2	Z2	X3	Y3	Z3	X4	Y4	Z4	X5	Y5	Z5	X6	Y6	Z6	X7	Y7	Z7	X8	Y8	Z8	X9	Y9	Z9	X10	Y10	Z10	X11	Y11	Z11	X12	Y12	Z12	X13	Y13	Z13	X14	Y14	Z14	X15	Y15	Z15	X16	Y16	Z16	X17	Y17	Z17	X18	Y18	Z18	X19	Y19	Z19	X20	Y20	Z20	X21	Y21	Z21	X22	Y22	Z22	X23	Y23	Z23	X24	Y24	Z24	X25	Y25	Z25	X26	Y26	Z26	X27	Y27	Z27	X28	Y28	Z28	X29	Y29	Z29	X30	Y30	Z30	X31	Y31	Z31	X32	Y32	Z32	X33	Y33	Z33	X34	Y34	Z34	X35	Y35	Z35	X36	Y36	Z36

1348	5.38800	0.00000	0.00000	0.00000	-2719.33716	961.45038	466.18393	-2739.77466	732.46112	507.47906	-2765.30518	692.59521	501.44223	-2786.57861	760.94641	484.82281	0.00000	0.00000	0.00000	-2873.98755	485.62604	411.97318	0.00000	0.00000	0.00000	0.00000	0.00000	0.00000	-2914.54028	357.52750	410.76825	-2932.44678	432.36917	421.16309	0.00000	0.00000	0.00000	-2962.18408	93.05936	372.49762	0.00000	0.00000	0.00000	-2914.19189	33.53284	332.46600	0.00000	0.00000	0.00000	-3112.39258	102.41301	320.71115	0.00000	0.00000	0.00000	-2544.77637	988.60394	274.34232	-2704.12549	958.78040	129.98383	-2593.87280	676.06995	99.03279	0.00000	0.00000	0.00000	0.00000	0.00000	0.00000	0.00000	0.00000	0.00000	-2494.04053	466.82312	169.21432	-2526.07104	457.44489	277.99628	-2381.69922	419.20419	166.87579	-2362.17993	379.55386	168.33510	0.00000	0.00000	0.00000	-2408.93872	353.72723	167.73882	-2259.02686	133.97597	225.46461	-2259.57080	116.18571	312.04370	-2185.29492	106.92071	268.26782	0.00000	0.00000	0.00000	-2387.48486	41.24971	273.14883	-2342.92310	32.40166	205.31628
1349	5.39200	0.00000	0.00000	0.00000	-2726.18994	961.12811	466.44055	-2747.74292	732.32074	507.44946	-2772.59473	692.26581	500.32144	-2794.34521	760.56104	484.55200	0.00000	0.00000	0.00000	-2880.09619	485.40201	411.97717	-2947.48657	385.48544	421.04935	0.00000	0.00000	0.00000	-2921.09033	358.55249	410.40262	-2939.39282	433.66785	420.42203	0.00000	0.00000	0.00000	-2965.09448	92.47891	372.46143	0.00000	0.00000	0.00000	-2915.19434	34.45838	332.67468	0.00000	0.00000	0.00000	-3117.60449	98.63131	319.78238	0.00000	0.00000	0.00000	-2551.73291	987.93140	274.61938	-2710.84155	957.92529	129.95078	-2600.85278	675.69958	99.17896	0.00000	0.00000	0.00000	0.00000	0.00000	0.00000	0.00000	0.00000	0.00000	-2500.68945	466.40955	168.79668	-2532.85327	456.61014	277.68527	-2388.46997	419.58160	166.40047	-2367.80884	380.42068	167.84555	0.00000	0.00000	0.00000	-2414.22900	354.16898	167.25243	-2261.60620	136.09451	224.58423	-2261.78101	118.47917	311.09839	-2187.38257	110.51119	267.62939	0.00000	0.00000	0.00000	-2387.65869	41.09089	273.08987	-2343.31519	32.48760	205.23610
1350	5.39600	0.00000	0.00000	0.00000	-2732.94409	960.90857	466.74686	-2755.41113	732.60260	507.48364	-2779.49658	692.29218	499.32532	0.00000	0.00000	0.00000	0.00000	0.00000	0.00000	-2886.18994	485.69742	412.25989	0.00000	0.00000	0.00000	0.00000	0.00000	0.00000	-2927.90820	360.03723	410.05841	-2947.40112	435.92001	420.01682	0.00000	0.00000	0.00000	-2966.93799	91.97720	373.37485	0.00000	0.00000	0.00000	-2916.09839	35.33226	332.89569	0.00000	0.00000	0.00000	-3125.29663	93.44048	321.89883	0.00000	0.00000	0.00000	-2558.60913	987.37646	274.76517	-2717.41089	957.11493	129.94237	-2607.95996	675.32849	99.37418	0.00000	0.00000	0.00000	0.00000	0.00000	0.00000	0.00000	0.00000	0.00000	-2507.57935	466.05820	168.33928	-2539.74756	455.73441	277.42584	-2395.58838	420.00320	165.94638	-2373.73022	381.37805	167.39235	0.00000	0.00000	0.00000	-2419.64087	354.64532	166.80220	-2264.38184	138.24756	223.68887	0.00000	0.00000	0.00000	-2191.76392	113.33785	267.73407	0.00000	0.00000	0.00000	-2387.87744	40.96524	273.01614	-2343.77979	32.60577	205.17163
1351	5.40000	0.00000	0.00000	0.00000	-2739.65942	960.91370	467.07877	-2762.82300	733.30408	507.40677	-2786.31494	692.77960	498.61850	0.00000	0.00000	0.00000	0.00000	0.00000	0.00000	-2892.26025	486.58173	412.64612	-2963.63794	390.30692	421.49957	0.00000	0.00000	0.00000	-2934.85229	361.61456	409.77435	-2956.28564	438.76328	420.08401	0.00000	0.00000	0.00000	-2968.67334	91.38944	373.56287	0.00000	0.00000	0.00000	-2916.86279	36.13698	333.09747	0.00000	0.00000	0.00000	-3127.98218	89.29333	321.81284	0.00000	0.00000	0.00000	-2565.46631	986.86676	274.85147	-2723.95288	956.36902	129.93515	-2615.24146	674.95349	99.61696	-2603.40259	652.79431	133.82739	0.00000	0.00000	0.00000	0.00000	0.00000	0.00000	-2514.86108	465.65033	167.86414	-2528.73462	448.68082	275.66022	-2404.91650	420.06339	165.94244	-2379.93677	382.39133	167.00412	0.00000	0.00000	0.00000	-2425.39917	355.18478	166.31596	-2267.34106	140.44499	222.77602	0.00000	0.00000	0.00000	-2194.37036	117.27396	267.19049	0.00000	0.00000	0.00000	-2388.18091	40.90742	272.90488	-2344.22803	32.73158	205.06300
1352	5.40400	0.00000	0.00000	0.00000	-2746.36450	961.17462	467.43753	-2769.96899	734.42999	507.25104	-2793.16479	693.76001	498.36887	0.00000	0.00000	0.00000	0.00000	0.00000	0.00000	-2898.61011	488.18594	412.88440	0.00000	0.00000	0.00000	0.00000	0.00000	0.00000	-2941.87085	363.13571	409.51712	-2965.55469	441.67603	420.43491	0.00000	0.00000	0.00000	-2970.39795	91.10102	373.64410	0.00000	0.00000	0.00000	-2917.61108	36.82016	333.37225	0.00000	0.00000	0.00000	-3129.57422	85.91447	321.08893	0.00000	0.00000	0.00000	-2572.30591	986.33875	274.79208	-2730.76904	955.77026	130.01576	-2622.71436	674.53790	99.81486	-2609.58252	652.42303	133.60974	0.00000	0.00000	0.00000	0.00000	0.00000	0.00000	-2515.10596	466.90698	165.28183	-2536.31055	447.89133	275.42075	-2405.57568	423.73773	166.27271	-2386.94165	383.17886	166.57581	0.00000	0.00000	0.00000	-2431.34351	355.68198	165.83173	-2270.46899	142.72902	221.85629	0.00000	0.00000	0.00000	-2197.18530	121.30595	266.64072	0.00000	0.00000	0.00000	-2388.46167	40.84178	272.85345	-2344.62158	32.84469	204.98029
1353	5.40800	0.00000	0.00000	0.00000	-2752.96851	961.60364	467.84830	-2776.75830	735.76447	507.10681	-2799.75586	694.97009	498.43845	0.00000	0.00000	0.00000	0.00000	0.00000	0.00000	-2905.24976	490.29620	413.03964	-2885.36084	380.02289	406.28189	0.00000	0.00000	0.00000	0.00000	0.00000	0.00000	-2975.03076	444.52496	420.97339	-2981.25635	395.62250	422.81436	-2972.18408	90.84623	373.73520	0.00000	0.00000	0.00000	-2918.31250	37.41704	333.63815	0.00000	0.00000	0.00000	-3131.28784	82.72949	320.67853	0.00000	0.00000	0.00000	-2579.06030	985.87183	274.57559	-2737.76855	955.36188	130.07198	-2630.36450	674.07867	100.08718	0.00000	0.00000	0.00000	0.00000	0.00000	0.00000	0.00000	0.00000	0.00000	-2522.88403	466.41409	164.74022	-2544.21509	447.18976	275.07047	-2412.87573	424.66345	165.99483	-2392.99414	384.58472	166.24234	0.00000	0.00000	0.00000	-2437.63086	356.26263	165.35056	-2272.27295	146.22023	220.96390	0.00000	0.00000	0.00000	-2200.25342	125.52578	266.17551	0.00000	0.00000	0.00000	-2388.78271	40.78976	272.77783	-2345.16431	33.04097	204.92754
1354	5.41200	0.00000	0.00000	0.00000	-2759.60889	962.31952	468.16489	-2783.39062	737.29858	506.98727	-2806.45312	696.41736	498.82919	0.00000	0.00000	0.00000	0.00000	0.00000	0.00000	-2912.33423	492.74170	413.02512	0.00000	0.00000	0.00000	0.00000	0.00000	0.00000	-2955.57007	365.37509	409.02914	0.00000	0.00000	0.00000	-2990.01953	398.04193	423.65793	-2973.80811	90.55233	373.93350	0.00000	0.00000	0.00000	-2918.83325	37.99272	333.88812	0.00000	0.00000	0.00000	-3132.72437	79.50741	320.21240	0.00000	0.00000	0.00000	-2585.77100	985.40289	274.28159	-2744.69531	954.97260	130.24632	-2638.20825	673.62177	100.34213	0.00000	0.00000	0.00000	0.00000	0.00000	0.00000	0.00000	0.00000	0.00000	-2531.02246	465.87054	164.15126	-2552.36328	446.51782	274.64087	-2420.38892	425.57349	165.74132	-2399.86670	385.53543	165.99014	0.00000	0.00000	0.00000	-2444.11353	356.80511	164.84779	-2275.65918	148.81818	220.10634	0.00000	0.00000	0.00000	-2202.48755	130.17064	265.00851	0.00000	0.00000	0.00000	-2389.19458	40.76370	272.69479	-2345.65845	33.25976	204.87111
1355	5.41600	0.00000	0.00000	0.00000	-2766.32642	963.19879	468.44894	-2789.69214	738.79260	507.01743	-2812.79761	697.85651	499.36551	0.00000	0.00000	0.00000	0.00000	0.00000	0.00000	-2919.62256	495.13629	412.90024	-2899.65942	381.65970	405.44037	0.00000	0.00000	0.00000	-2962.01025	366.06943	408.80881	0.00000	0.00000	0.00000	-2998.34668	400.06161	424.54361	-2975.23340	90.27566	374.04175	0.00000	0.00000	0.00000	-2919.34204	38.58638	334.09418	0.00000	0.00000	0.00000	-3134.14111	76.35168	319.70099	0.00000	0.00000	0.00000	-2592.24292	984.95837	273.83118	-2751.76880	954.74091	130.40816	-2646.15771	673.13721	100.54343	0.00000	0.00000	0.00000	0.00000	0.00000	0.00000	0.00000	0.00000	0.00000	-2539.07178	465.23090	163.37764	-2560.88623	445.75363	274.05957	-2428.65332	426.33087	165.60338	-2407.54053	388.51627	165.97182	0.00000	0.00000	0.00000	-2450.90552	357.35294	164.26578	-2279.39624	151.43484	219.26414	0.00000	0.00000	0.00000	-2206.12500	134.71730	264.58124	0.00000	0.00000	0.00000	-2389.70972	40.73790	272.60852	-2346.24341	33.55624	204.86429
1356	5.42000	0.00000	0.00000	0.00000	-2772.99219	964.27734	468.53665	-2795.98096	740.31134	507.14587	-2819.08911	699.29138	499.91290	0.00000	0.00000	0.00000	0.00000	0.00000	0.00000	-2927.09692	497.32843	412.49506	0.00000	0.00000	0.00000	0.00000	0.00000	0.00000	-2968.10669	366.47830	408.62454	0.00000	0.00000	0.00000	0.00000	0.00000	0.00000	-2976.62305	90.06475	374.03900	0.00000	0.00000	0.00000	-2919.88770	39.16023	334.26895	0.00000	0.00000	0.00000	-3135.65112	73.46867	319.25568	0.00000	0.00000	0.00000	-2598.48706	984.66089	273.24738	-2758.83105	954.55566	130.62648	-2654.25903	672.62170	100.82912	0.00000	0.00000	0.00000	0.00000	0.00000	0.00000	0.00000	0.00000	0.00000	-2549.63672	464.26666	163.04114	-2569.68091	444.96295	273.28000	-2436.33032	427.32431	165.29686	-2414.99219	389.44141	165.49321	0.00000	0.00000	0.00000	-2457.45581	358.03900	162.77490	-2283.39868	154.19412	218.47685	0.00000	0.00000	0.00000	-2209.96069	139.42578	264.10971	0.00000	0.00000	0.00000	-2389.36963	39.40852	273.41776	-2346.85815	33.91189	204.90944
1357	5.42400	0.00000	0.00000	0.00000	-2779.66406	965.50348	468.46686	-2802.15356	741.69537	507.42136	-2825.49561	700.75653	500.48157	0.00000	0.00000	0.00000	0.00000	0.00000	0.00000	-2934.72290	499.16910	411.89420	-2926.08667	509.75092	279.49438	0.00000	0.00000	0.00000	-2973.84741	366.57764	408.40527	0.00000	0.00000	0.00000	0.00000	0.00000	0.00000	-2978.38135	90.19495	373.81073	0.00000	0.00000	0.00000	-2920.39160	39.71558	334.46097	0.00000	0.00000	0.00000	-3137.11328	70.70647	318.91171	0.00000	0.00000	0.00000	-2600.40234	984.91296	272.03015	-2765.87939	954.46136	130.86543	-2662.40454	672.13593	101.07820	0.00000	0.00000	0.00000	0.00000	0.00000	0.00000	0.00000	0.00000	0.00000	-2558.77734	463.52383	162.24521	0.00000	0.00000	0.00000	-2444.69873	428.20877	165.10255	-2423.11816	390.51184	165.30775	0.00000	0.00000	0.00000	-2463.71387	359.25696	161.19379	-2287.73169	157.00085	217.70006	0.00000	0.00000	0.00000	-2214.09082	144.35855	263.61935	0.00000	0.00000	0.00000	-2389.76294	39.32477	273.37814	-2347.55322	34.36718	204.91791
1358	5.42800	0.00000	0.00000	0.00000	-2786.32251	966.76660	468.26080	-2808.27783	742.97052	507.69827	-2831.69165	702.06226	500.96008	0.00000	0.00000	0.00000	0.00000	0.00000	0.00000	-2942.35522	500.47021	411.10187	0.00000	0.00000	0.00000	0.00000	0.00000	0.00000	-2979.22192	366.54007	408.16537	0.00000	0.00000	0.00000	0.00000	0.00000	0.00000	-2979.87939	89.99245	373.94894	0.00000	0.00000	0.00000	-2915.21143	42.34604	334.12625	0.00000	0.00000	0.00000	-3138.40845	68.06608	318.63580	0.00000	0.00000	0.00000	-2607.43750	984.65735	271.37503	-2772.88867	954.43164	131.09668	-2670.74585	671.62469	101.34324	0.00000	0.00000	0.00000	0.00000	0.00000	0.00000	0.00000	0.00000	0.00000	-2568.06543	462.67007	161.41866	-2588.49512	442.90726	271.41101	-2453.45776	428.91278	164.99306	-2430.75830	391.77637	164.97249	-2500.37793	380.95926	175.32266	-2471.31616	359.74466	160.43631	-2292.38794	159.86940	216.93875	0.00000	0.00000	0.00000	-2218.51538	149.33923	263.23370	0.00000	0.00000	0.00000	-2390.32642	39.29843	273.31650	-2348.33228	34.94115	204.99068
